<svg class="vector" width="300px" height="300px" xmlns="http://www.w3.org/2000/svg" baseProfile="full" version="1.1" style="width: 300px; height: 300px; fill: none; stroke-width: 5;"><g transform="translate(0,0)"><path id="layer_3" d="" style="stroke: rgb(244, 244, 244); stroke-width: 25; stroke-linecap: round; stroke-linejoin: round; fill: none;"></path><path id="layer_2" d="" style="stroke: rgb(244, 244, 244); stroke-width: 25; stroke-linecap: round; stroke-linejoin: round; fill: none;"></path><path id="layer_1" d="M150,15 A-135,135 0 0,0 15,150 A0,0 0 0,0 15,150 A135,135 0 0,0 150,285 A0,0 0 0,0 150,285 A135,-135 0 0,0 285,150 A0,0 0 0,0 285,150 A-135,-135 0 0,0 150,15 M135,255 A0,-60 0 0,0 135,195 M165,255 A0,-60 0 0,0 165,195 M135,195 A15,-15 0 0,1 150,180 A0,0 0 0,1 150,180 A15,15 0 0,1 165,195 M150,180 A0,-90 0 0,1 150,90 A0,0 0 0,1 150,90 A-15,-15 0 0,1 135,75 A0,0 0 0,1 135,75 A15,-15 0 0,1 150,60 A0,0 0 0,1 150,60 A15,15 0 0,1 165,75 A0,0 0 0,1 165,75 A-15,15 0 0,1 150,90 M120,165 L120,165 L120,135 M180,165 L180,165 L180,135 M120,135 A15,-15 0 0,1 135,120 M135,120 L135,120 L150,120 L150,120 L165,120 M165,120 A15,15 0 0,1 180,135 M135,75 L135,75 L165,75 " style="stroke: rgb(244, 244, 244); stroke-width: 25; stroke-linecap: butt; stroke-linejoin: miter; fill: none;"></path></g><g><path id="mirror_layer_3" d="M0,0" transform="" style="stroke: rgb(244, 244, 244); stroke-width: 25; stroke-linecap: round; stroke-linejoin: round; fill: none;"></path><path id="mirror_layer_2" d="M0,0" transform="" style="stroke: rgb(244, 244, 244); stroke-width: 25; stroke-linecap: round; stroke-linejoin: round; fill: none;"></path><path id="mirror_layer_1" d="M0,0" transform="" style="stroke: rgb(244, 244, 244); stroke-width: 25; stroke-linecap: butt; stroke-linejoin: miter; fill: none;"></path></g></svg>