<svg class="vector" width="300px" height="300px" xmlns="http://www.w3.org/2000/svg" baseProfile="full" version="1.1" style="width: 300px; height: 300px; fill: none; stroke-width: 5;"><g transform="translate(0,0)"><path id="layer_3" d="" style="stroke: rgb(244, 244, 244); stroke-width: 5; stroke-linecap: round; stroke-linejoin: round; fill: none;"></path><path id="layer_2" d="" style="stroke: rgb(244, 244, 244); stroke-width: 5; stroke-linecap: round; stroke-linejoin: round; fill: none;"></path><path id="layer_1" d="M180,120 A-60,60 0 0,0 120,180 A0,0 0 0,0 120,180 A60,-60 0 0,0 180,120 M120,180 A60,-60 0 0,1 180,120 A0,0 0 0,1 180,120 A-60,60 0 0,1 120,180 M195,105 L195,105 L255,45 M105,195 L105,195 L45,255 M150,240 A90,-90 0 0,0 240,150 A0,0 0 0,0 240,150 A-90,-90 0 0,0 150,60 A0,0 0 0,0 150,60 A-90,90 0 0,0 60,150 A0,0 0 0,0 60,150 A90,90 0 0,0 150,240 M150,30 A-120,120 0 0,0 30,150 A0,0 0 0,0 30,150 A120,120 0 0,0 150,270 A0,0 0 0,0 150,270 A120,-120 0 0,0 270,150 A0,0 0 0,0 270,150 A-120,-120 0 0,0 150,30 M60,270 L60,270 L30,240 M240,30 L240,30 L270,60 M150,30 L150,30 L150,60 M60,150 L60,150 L30,150 M150,240 L150,240 L150,270 M240,150 L240,150 L270,150 M90,90 L90,90 L60,60 M210,210 L210,210 L240,240 " style="stroke: rgb(25, 25, 25); stroke-width: 15; stroke-linecap: butt; stroke-linejoin: miter; fill: none;"></path></g><g><path id="mirror_layer_3" d="M0,0" transform="" style="stroke: rgb(244, 244, 244); stroke-width: 5; stroke-linecap: round; stroke-linejoin: round; fill: none;"></path><path id="mirror_layer_2" d="M0,0" transform="" style="stroke: rgb(244, 244, 244); stroke-width: 5; stroke-linecap: round; stroke-linejoin: round; fill: none;"></path><path id="mirror_layer_1" d="M0,0" transform="" style="stroke: rgb(25, 25, 25); stroke-width: 15; stroke-linecap: butt; stroke-linejoin: miter; fill: none;"></path></g></svg>